<svg width="20" height="20" viewBox="0 0 24 24" fill="#F38EB7" xmlns="http://www.w3.org/2000/svg">
<path d="M12 .5C5.648.5.5 5.648.5 12c0 5.088 3.292 9.407 7.866 10.936.575.111.786-.247.786-.553 0-.272-.01-1.178-.015-2.136-3.199.695-3.876-1.372-3.876-1.372-.524-1.33-1.281-1.684-1.281-1.684-1.048-.717.079-.703.079-.703 1.159.083 1.771 1.191 1.771 1.191 1.03 1.766 2.704 1.255 3.363.959.104-.746.403-1.255.732-1.543-2.553-.292-5.236-1.277-5.236-5.682 0-1.255.45-2.28 1.188-3.084-.118-.293-.515-1.471.112-3.064 0 0 .965-.309 3.163 1.178A11.03 11.03 0 0 1 12 6.844c.98.004 1.967.133 2.888.389 2.198-1.487 3.161-1.178 3.161-1.178.629 1.593.232 2.771.114 3.064.739.804 1.186 1.829 1.186 3.084 0 4.415-2.687 5.386-5.253 5.672.41.355.776 1.07.776 2.163 0 1.561-.014 2.819-.014 3.203 0 .309.209.671.79.552C20.212 21.403 23.5 17.086 23.5 12c0-6.352-5.148-11.5-11.5-11.5Z"/>
</svg>
