<svg width="20" height="18" viewBox="0 0 24 24" fill="#F38EB7" xmlns="http://www.w3.org/2000/svg">
<path d="M12 7.35A4.65 4.65 0 1 0 16.65 12 4.65 4.65 0 0 0 12 7.35Zm0 7.65A3 3 0 1 1 15 12a3 3 0 0 1-3 3Zm6.75-7.89a1.08 1.08 0 1 1-1.08-1.08 1.08 1.08 0 0 1 1.08 1.08Zm3.15 1.11a6.7 6.7 0 0 0-1.83-4.77A6.7 6.7 0 0 0 15.3 1.62c-1.88-.13-7.52-.13-9.4 0A6.7 6.7 0 0 0 1.13 6.45a39 39 0 0 0 0 11.1 6.7 6.7 0 0 0 4.77 4.83c1.88.13 7.52.13 9.4 0a6.7 6.7 0 0 0 4.77-4.77 39 39 0 0 0 0-11.1Zm-2.07 10.29a4.22 4.22 0 0 1-2.37 2.37c-1.64.65-5.52.5-7.46.5s-5.83.15-7.46-.5a4.22 4.22 0 0 1-2.37-2.37c-.65-1.64-.5-5.52-.5-7.46s-.15-5.83.5-7.46a4.22 4.22 0 0 1 2.37-2.37c1.64-.65 5.52-.5 7.46-.5s5.83-.15 7.46.5a4.22 4.22 0 0 1 2.37 2.37c.65 1.64.5 5.52.5 7.46s.15 5.83-.5 7.46Z"/>
</svg>
